<svg id="Layer_5" enable-background="new 0 0 64 64" height="512" viewBox="0 0 64 64" width="512" xmlns="http://www.w3.org/2000/svg"><path d="m35 40.679v-17.358c-.91.433-1.926.679-3 .679s-2.09-.246-3-.679v17.359c.91-.434 1.926-.68 3-.68s2.09.246 3 .679zm-4-14.679h2v2h-2zm0 4h2v2h-2zm0 4h2v2h-2z"/><circle cx="32" cy="17" r="1"/><path d="m37 47c0-2.757-2.243-5-5-5s-5 2.243-5 5v1h-14v4h38v-4h-14zm-5 3c-1.654 0-3-1.346-3-3s1.346-3 3-3 3 1.346 3 3-1.346 3-3 3z"/><path d="m8 3h-2c-1.654 0-3 1.346-3 3v16c0 1.654 1.346 3 3 3h2c1.654 0 3-1.346 3-3v-16c0-1.654-1.346-3-3-3zm-1 20.414-2.707-2.707 1.414-1.414 1.293 1.293 1.293-1.293 1.414 1.414zm0-5-2.707-2.707 1.414-1.414 1.293 1.293 1.293-1.293 1.414 1.414zm0-5-2.707-2.707 1.414-1.414 1.293 1.293 1.293-1.293 1.414 1.414zm0-5-2.707-2.707 1.414-1.414 1.293 1.293 1.293-1.293 1.414 1.414z"/><path d="m8 39h-2c-1.654 0-3 1.346-3 3v16c0 1.654 1.346 3 3 3h2c1.654 0 3-1.346 3-3v-16c0-1.654-1.346-3-3-3zm-1 20.414-2.707-2.707 1.414-1.414 1.293 1.293 1.293-1.293 1.414 1.414zm0-5-2.707-2.707 1.414-1.414 1.293 1.293 1.293-1.293 1.414 1.414zm0-5-2.707-2.707 1.414-1.414 1.293 1.293 1.293-1.293 1.414 1.414zm0-5-2.707-2.707 1.414-1.414 1.293 1.293 1.293-1.293 1.414 1.414z"/><circle cx="32" cy="47" r="1"/><path d="m13 16h14v1c0 2.757 2.243 5 5 5s5-2.243 5-5v-1h14v-4h-38zm19-2c1.654 0 3 1.346 3 3s-1.346 3-3 3-3-1.346-3-3 1.346-3 3-3z"/><path d="m58 39h-2c-1.654 0-3 1.346-3 3v16c0 1.654 1.346 3 3 3h2c1.654 0 3-1.346 3-3v-16c0-1.654-1.346-3-3-3zm-1 20.414-2.707-2.707 1.414-1.414 1.293 1.293 1.293-1.293 1.414 1.414zm0-5-2.707-2.707 1.414-1.414 1.293 1.293 1.293-1.293 1.414 1.414zm0-5-2.707-2.707 1.414-1.414 1.293 1.293 1.293-1.293 1.414 1.414zm0-5-2.707-2.707 1.414-1.414 1.293 1.293 1.293-1.293 1.414 1.414z"/><path d="m58 3h-2c-1.654 0-3 1.346-3 3v16c0 1.654 1.346 3 3 3h2c1.654 0 3-1.346 3-3v-16c0-1.654-1.346-3-3-3zm-1 20.414-2.707-2.707 1.414-1.414 1.293 1.293 1.293-1.293 1.414 1.414zm0-5-2.707-2.707 1.414-1.414 1.293 1.293 1.293-1.293 1.414 1.414zm0-5-2.707-2.707 1.414-1.414 1.293 1.293 1.293-1.293 1.414 1.414zm0-5-2.707-2.707 1.414-1.414 1.293 1.293 1.293-1.293 1.414 1.414z"/></svg>