<?xml version="1.0" encoding="iso-8859-1"?>
<!-- Generator: Adobe Illustrator 19.0.0, SVG Export Plug-In . SVG Version: 6.00 Build 0)  -->
<svg version="1.1" id="Capa_1" xmlns="http://www.w3.org/2000/svg" xmlns:xlink="http://www.w3.org/1999/xlink" x="0px" y="0px"
	 viewBox="0 0 512 512" style="enable-background:new 0 0 512 512;" xml:space="preserve">
<g>
	<g>
		<path d="M508.875,97.458l-30.271-30.323c-2-2.01-4.708-3.135-7.542-3.135c-2.833,0-5.542,1.125-7.542,3.125l-64.25,64.313
			c-4.708,4.708-14.167,4.698-18.875,0.01c-14-14.052-33.979-22.104-54.813-22.104c0,0,0,0-0.021,0
			c-19.878,0-38.842,7.525-52.717,20.418l-9.303-9.303c-4.167-4.167-10.917-4.167-15.083,0l-9.625,9.615
			c-16.313-13.896-42.542-12.938-57.792,2.344L47.083,266.365c-8.063,8.063-12.5,18.771-12.5,30.167
			c0,10.25,3.583,19.938,10.167,27.635l-9.625,9.625c-4.167,4.167-4.167,10.917,0,15.083l9.271,9.271L3.125,399.469
			c-4.167,4.167-4.167,10.917,0,15.073l30.271,30.323c2,2.01,4.708,3.135,7.542,3.135s5.542-1.125,7.542-3.125l41.297-41.349
			l9.349,9.349c2.083,2.083,4.813,3.125,7.542,3.125c2.729,0,5.458-1.042,7.542-3.125l9.625-9.615
			c16.292,13.885,42.521,12.906,57.792-2.344l133.958-133.948c8.063-8.063,12.5-18.771,12.5-30.167
			c0-10.25-3.583-19.938-10.167-27.635l9.625-9.625c4.167-4.167,4.167-10.917,0-15.083l-9.092-9.092
			c5.094-3.151,12.289-2.832,16.572,1.467c14,14.052,33.979,22.115,54.813,22.115c20.833,0,40.813-8.063,54.792-22.104l64.25-64.313
			C513.042,108.365,513.042,101.615,508.875,97.458z M218.854,185.115l-67.208,67.198c-2.083,2.083-4.813,3.125-7.542,3.125
			c-2.729,0-5.458-1.042-7.542-3.125c-4.167-4.167-4.167-10.917,0-15.083l67.208-67.198c4.167-4.167,10.917-4.167,15.083,0
			C223.021,174.198,223.021,180.948,218.854,185.115z"/>
	</g>
</g>
<g>
</g>
<g>
</g>
<g>
</g>
<g>
</g>
<g>
</g>
<g>
</g>
<g>
</g>
<g>
</g>
<g>
</g>
<g>
</g>
<g>
</g>
<g>
</g>
<g>
</g>
<g>
</g>
<g>
</g>
</svg>
