<svg id="Capa_1" enable-background="new 0 0 512 512" height="512" viewBox="0 0 512 512" width="512" xmlns="http://www.w3.org/2000/svg"><g><path d="m457 0h-402c-30.327 0-55 24.673-55 55v280c0 30.327 24.673 55 55 55h121.266l-12.109 43.593c-19.084 5.213-33.157 22.693-33.157 43.407v20c0 8.284 6.716 15 15 15h220c8.284 0 15-6.716 15-15v-20c0-20.714-14.073-38.194-33.156-43.407l-12.11-43.593h121.266c30.327 0 55-24.673 55-55v-280c0-30.327-24.673-55-55-55zm-121 462c8.271 0 15 6.729 15 15v5h-190v-5c0-8.271 6.729-15 15-15zm-140.266-30 11.667-42h97.198l11.667 42zm286.266-97c0 13.785-11.215 25-25 25h-402c-13.785 0-25-11.215-25-25v-5h452zm0-35h-452v-245c0-13.785 11.215-25 25-25h402c13.785 0 25 11.215 25 25z"/><circle cx="346" cy="165" r="15"/><path d="m436 150h-16.509c-1.949-9.562-5.731-18.46-10.948-26.33l11.704-11.704c5.858-5.857 5.858-15.355 0-21.213s-15.355-5.858-21.213 0l-11.704 11.704c-7.869-5.218-16.768-9-26.329-10.948v-16.509c0-8.284-6.716-15-15-15s-15 6.716-15 15v16.509c-9.561 1.948-18.46 5.731-26.329 10.948l-11.704-11.704c-5.857-5.857-15.355-5.857-21.213 0-5.857 5.857-5.857 15.355 0 21.213l11.704 11.704c-5.218 7.869-9 16.768-10.948 26.33h-16.511c-8.284 0-15 6.716-15 15s6.716 15 15 15h16.509c1.949 9.562 5.731 18.46 10.948 26.33l-11.704 11.704c-5.858 5.857-5.858 15.355 0 21.213 2.93 2.93 6.768 4.394 10.607 4.394 3.838 0 7.678-1.465 10.606-4.394l11.704-11.704c7.869 5.218 16.768 9 26.329 10.948v16.509c0 8.284 6.716 15 15 15s15-6.716 15-15v-16.509c9.561-1.948 18.46-5.731 26.329-10.948l11.704 11.704c2.929 2.929 6.768 4.394 10.606 4.394s7.678-1.465 10.607-4.394c5.857-5.857 5.857-15.355 0-21.213l-11.704-11.704c5.218-7.869 9-16.768 10.948-26.33h16.511c8.284 0 15-6.716 15-15s-6.716-15-15-15zm-90 60c-24.813 0-45-20.187-45-45s20.187-45 45-45 45 20.187 45 45-20.187 45-45 45z"/><path d="m196 225h-75c0-8.284-6.716-15-15-15s-15 6.716-15 15h-15c-8.284 0-15 6.716-15 15s6.716 15 15 15h15c0 8.284 6.716 15 15 15s15-6.716 15-15h75c8.284 0 15-6.716 15-15s-6.716-15-15-15z"/><path d="m196 150h-15c0-8.284-6.716-15-15-15s-15 6.716-15 15h-75c-8.284 0-15 6.716-15 15s6.716 15 15 15h75c0 8.284 6.716 15 15 15s15-6.716 15-15h15c8.284 0 15-6.716 15-15s-6.716-15-15-15z"/><path d="m196 75h-75c0-8.284-6.716-15-15-15s-15 6.716-15 15h-15c-8.284 0-15 6.716-15 15s6.716 15 15 15h15c0 8.284 6.716 15 15 15s15-6.716 15-15h75c8.284 0 15-6.716 15-15s-6.716-15-15-15z"/></g></svg>