<?xml version="1.0" encoding="iso-8859-1"?>
<!-- Generator: Adobe Illustrator 19.0.0, SVG Export Plug-In . SVG Version: 6.00 Build 0)  -->
<svg version="1.1" id="Layer_1" xmlns="http://www.w3.org/2000/svg" xmlns:xlink="http://www.w3.org/1999/xlink" x="0px" y="0px"
	 viewBox="0 0 512 512" style="enable-background:new 0 0 512 512;" xml:space="preserve">
<g>
	<g>
		<path d="M509.5,284.028l-6.033-6.033v-56.201c0-4.71-3.823-8.533-8.533-8.533H349.867v-68.079c0-4.676-3.831-8.499-8.508-8.533
			c-145.664-1.092-175.829,18.15-226.688,77.619c-16.7,1.476-32.196,4.617-45.901,9.114c-22.562,7.398-43.17,15.479-56.26,41.071
			v0.009c-2.005,4.292-3.354,8.747-3.789,13.355l-6.212,6.212C0.896,285.624,0,287.8,0,290.061v17.067
			c0,2.261,0.896,4.437,2.5,6.033l6.033,6.033v13.534c0,4.71,3.823,8.533,8.533,8.533H51.2c4.736,0,8.525-3.891,8.533-8.627
			c0-0.043,0.009-0.085,0.009-0.137c0.128-32.879,26.812-59.503,59.725-59.503c32.99,0,59.733,26.743,59.733,59.733
			c-0.614,5.18,3.473,8.533,8.533,8.533H332.8c4.736,0,8.525-3.891,8.533-8.627c0-0.043,0.008-0.085,0.008-0.137
			c0.128-32.879,26.812-59.503,59.725-59.503c32.99,0,59.733,26.743,59.733,59.733c-0.614,5.18,3.473,8.533,8.533,8.533h25.6
			c2.261,0,4.437-0.896,6.033-2.5l8.533-8.533c1.604-1.604,2.5-3.772,2.5-6.042v-34.133C512,287.8,511.104,285.624,509.5,284.028z
			 M247.467,208.995c0,2.355-1.911,4.267-4.267,4.267h-95.241c-3.78,0-5.658-4.531-3.055-7.27
			c24.721-25.95,48.393-40.866,97.63-47.701c2.569-0.358,4.932,1.655,4.932,4.241V208.995z M332.8,208.995
			c0,2.355-1.911,4.267-4.267,4.267H268.8c-2.355,0-4.267-1.911-4.267-4.267v-49.126c0-2.236,1.673-4.105,3.9-4.267
			c17.186-1.271,37.035-1.869,60.023-1.92c2.364-0.009,4.343,1.911,4.343,4.275V208.995z"/>
	</g>
</g>
<g>
	<g>
		<path d="M401.067,290.061c-23.526,0-42.667,19.14-42.667,42.667c0,23.526,19.14,42.667,42.667,42.667
			c23.526,0,42.667-19.14,42.667-42.667C443.733,309.202,424.593,290.061,401.067,290.061z M401.067,358.328
			c-14.114,0-25.6-11.486-25.6-25.6s11.486-25.6,25.6-25.6c14.114,0,25.6,11.486,25.6,25.6S415.181,358.328,401.067,358.328z"/>
	</g>
</g>
<g>
	<g>
		<path d="M119.467,290.061c-23.526,0-42.667,19.14-42.667,42.667c0,23.526,19.14,42.667,42.667,42.667s42.667-19.14,42.667-42.667
			C162.133,309.202,142.993,290.061,119.467,290.061z M119.467,358.328c-14.114,0-25.6-11.486-25.6-25.6s11.486-25.6,25.6-25.6
			s25.6,11.486,25.6,25.6S133.581,358.328,119.467,358.328z"/>
	</g>
</g>
<g>
</g>
<g>
</g>
<g>
</g>
<g>
</g>
<g>
</g>
<g>
</g>
<g>
</g>
<g>
</g>
<g>
</g>
<g>
</g>
<g>
</g>
<g>
</g>
<g>
</g>
<g>
</g>
<g>
</g>
</svg>
