<?xml version="1.0"?>
<svg xmlns="http://www.w3.org/2000/svg" id="Layer_1" data-name="Layer 1" viewBox="0 0 512 512" width="512" height="512"><title>SUV Car</title><circle cx="117.251" cy="323.226" r="40"/><circle cx="399.796" cy="323.727" r="40"/><path d="M199.1,175.042c-30.973,12.952-55.438,31.068-68.9,42.268L261,217.673V159.726a184.059,184.059,0,0,0-33.422,5.62A217.976,217.976,0,0,0,199.1,175.042Z"/><polygon points="273 217.706 372 217.98 372 159 273 159 273 217.706"/><path d="M273,316h66.57a59.92,59.92,0,0,1,118.281-3.186A49.192,49.192,0,0,0,490,266.733V263H471.672a6,6,0,0,1,0-12H490V230.309l-217-.6Z"/><path d="M418.6,159H384v59.013l105.551.294a14.183,14.183,0,0,0-4.341-6.465l-57.448-49.335A14.278,14.278,0,0,0,418.6,159Z"/><path d="M43.918,241.336A32.576,32.576,0,0,0,28.026,253.4,33.042,33.042,0,0,0,22,272.491V316H57.894c3.909-30,28.962-51.877,59.38-51.877S172.746,286,176.656,316H261V229.673l-146.5-.407A214.876,214.876,0,0,0,43.918,241.336ZM209.555,241h24.714a6,6,0,0,1,0,12H209.555a6,6,0,0,1,0-12Z"/></svg>
